<?xml version="1.0" standalone="no"?>
<!DOCTYPE svg PUBLIC "-//W3C//DTD SVG 20010904//EN"
 "http://www.w3.org/TR/2001/REC-SVG-20010904/DTD/svg10.dtd">
<svg version="1.0" xmlns="http://www.w3.org/2000/svg"
 width="64.000000pt" height="64.000000pt" viewBox="0 0 64.000000 64.000000"
 preserveAspectRatio="xMidYMid meet">

<g transform="translate(0.000000,64.000000) scale(0.100000,-0.100000)"
fill="#000000" stroke="none">
<path d="M245 631 c-89 -23 -167 -88 -212 -174 -23 -44 -27 -65 -27 -137 -1
-100 23 -159 89 -226 66 -66 125 -89 225 -89 73 0 93 4 142 28 65 32 121 90
152 156 31 69 30 198 -3 266 -32 64 -93 124 -156 154 -54 25 -157 36 -210 22z
m143 -44 c67 -18 124 -58 161 -114 110 -165 20 -380 -175 -424 -143 -32 -293
68 -324 215 -34 166 92 322 270 335 9 1 39 -5 68 -12z"/>
<path d="M267 569 c-102 -24 -173 -96 -196 -198 l-9 -41 53 0 c52 0 54 1 64
33 14 41 56 83 99 98 31 11 32 13 32 65 0 30 -1 54 -2 53 -2 -1 -20 -5 -41
-10z"/>
<path d="M330 522 c0 -47 0 -47 50 -70 41 -19 53 -31 72 -72 l23 -50 52 0 53
0 -7 33 c-19 106 -126 207 -218 207 -23 0 -25 -3 -25 -48z"/>
<path d="M275 440 c-27 -11 -71 -60 -80 -87 -5 -19 -2 -23 14 -23 12 0 21 -4
21 -10 0 -5 -9 -10 -21 -10 -17 0 -19 -4 -13 -22 12 -40 34 -66 69 -82 42 -20
45 -20 45 4 0 11 5 20 10 20 6 0 10 -9 10 -20 0 -24 1 -24 45 -6 34 15 57 42
70 84 5 18 2 22 -14 22 -12 0 -21 5 -21 10 0 6 9 10 20 10 24 0 24 3 4 45 -16
35 -42 57 -81 69 -19 6 -23 4 -23 -13 0 -12 -4 -21 -10 -21 -5 0 -10 9 -10 20
0 22 -5 23 -35 10z m63 -123 c2 -10 -3 -17 -12 -17 -18 0 -29 16 -21 31 9 14
29 6 33 -14z"/>
<path d="M70 285 c0 -92 101 -199 208 -218 l32 -6 0 52 0 52 -50 23 c-41 19
-53 31 -72 72 -23 50 -23 50 -70 50 -45 0 -48 -2 -48 -25z"/>
<path d="M453 259 c-19 -43 -29 -53 -72 -72 l-51 -22 0 -52 0 -52 33 6 c41 8
105 39 135 67 29 25 67 98 75 144 l7 32 -53 0 -52 0 -22 -51z"/>
</g>
</svg>
