<?xml version="1.0" standalone="no"?>
<!DOCTYPE svg PUBLIC "-//W3C//DTD SVG 20010904//EN"
 "http://www.w3.org/TR/2001/REC-SVG-20010904/DTD/svg10.dtd">
<svg version="1.0" xmlns="http://www.w3.org/2000/svg"
 width="1566.000000pt" height="2133.000000pt" viewBox="0 0 1566.000000 2133.000000"
 preserveAspectRatio="xMidYMid meet">

<g transform="translate(0.000000,2133.000000) scale(0.100000,-0.100000)"
fill="#000000" stroke="none">
<path d="M7117 21304 c-33 -17 -95 -33 -190 -49 -832 -139 -1511 -434 -2212
-960 -224 -169 -391 -311 -582 -499 -278 -272 -477 -511 -678 -811 -500 -751
-776 -1605 -844 -2619 -15 -222 -38 -261 -216 -359 -47 -26 -120 -74 -163
-107 -99 -75 -253 -234 -315 -328 -160 -239 -237 -514 -223 -797 16 -351 150
-648 411 -911 209 -211 433 -325 730 -370 204 -32 671 3 727 53 23 21 58 115
58 158 0 70 -105 546 -200 905 -242 917 -289 1627 -154 2340 133 704 424 1364
854 1935 137 181 236 295 413 473 241 244 459 423 737 607 906 599 1920 851
2996 745 1138 -111 2081 -556 2850 -1341 602 -617 1027 -1352 1220 -2114 100
-392 141 -771 131 -1195 -13 -544 -56 -777 -433 -2355 -35 -148 -83 -275 -160
-425 -144 -279 -345 -487 -639 -662 -657 -389 -1377 -568 -2440 -604 -160 -6
-203 -4 -267 10 -101 23 -179 73 -251 163 -94 118 -159 162 -288 194 -104 27
-249 23 -349 -10 -189 -60 -356 -223 -421 -411 -31 -89 -37 -241 -14 -330 35
-135 112 -254 218 -338 207 -164 450 -193 675 -81 84 41 142 92 291 253 30 32
72 67 95 76 45 20 146 35 301 45 55 4 143 13 195 20 52 8 268 37 480 65 747
98 1075 163 1416 281 700 242 1209 695 1475 1314 23 55 52 111 63 123 43 49
111 73 247 88 158 17 247 35 369 75 306 99 557 288 727 546 93 141 148 281
185 467 30 148 32 400 5 526 -80 375 -292 664 -664 907 -201 131 -217 172
-258 663 -28 338 -63 515 -175 885 -551 1816 -1756 3023 -3570 3576 -91 28
-304 86 -475 130 l-310 79 -665 -1 -665 0 -48 -25z"/>
<path d="M7560 19983 c-751 -54 -1443 -288 -2054 -695 -307 -205 -616 -484
-827 -748 -328 -411 -559 -903 -658 -1405 -81 -411 -89 -762 -26 -1280 142
-1182 482 -2383 979 -3465 351 -762 823 -1386 1396 -1845 306 -245 694 -438
1015 -504 170 -35 286 -44 484 -38 558 15 1046 225 1538 661 123 109 303 286
290 286 -20 0 -709 -63 -878 -80 -212 -22 -257 -32 -371 -84 -345 -157 -724
-182 -1068 -70 -408 134 -848 477 -1215 949 -454 583 -911 1554 -1180 2505
-123 433 -224 926 -286 1385 -25 191 -22 457 6 585 77 347 243 631 537 923 71
70 135 127 141 127 7 0 51 -43 97 -95 217 -245 481 -445 775 -590 450 -221
964 -312 1616 -284 187 8 507 34 516 42 1 2 -95 34 -215 71 -484 152 -704 252
-961 434 -60 42 -63 46 -41 54 13 5 215 13 449 18 633 14 974 28 1281 52 365
28 776 31 940 5 287 -45 666 -175 826 -284 70 -48 140 -121 177 -183 60 -103
96 -298 118 -640 29 -465 -55 -967 -274 -1630 -103 -309 -256 -735 -351 -970
-52 -129 -91 -236 -86 -238 25 -9 325 100 456 166 177 89 377 249 422 338 39
78 208 607 286 895 137 506 220 962 268 1474 17 187 18 865 0 995 -59 444
-157 774 -333 1121 -305 603 -826 1141 -1451 1500 -538 308 -1131 489 -1772
539 -118 9 -457 11 -566 3z"/>
<path d="M10946 9046 c-9 -30 -122 -432 -250 -893 -639 -2288 -890 -3089
-1254 -3998 -129 -321 -348 -815 -434 -980 l-16 -29 -20 69 c-12 39 -96 484
-187 990 -183 1015 -311 1709 -385 2090 -63 324 -80 441 -88 603 -13 256 7
430 74 631 52 156 45 172 -144 324 -202 163 -277 202 -382 201 -81 -1 -150
-28 -297 -118 -157 -94 -242 -156 -277 -199 -47 -59 -48 -145 -3 -352 53 -245
61 -299 61 -440 -1 -178 -53 -499 -324 -1960 -76 -412 -180 -977 -231 -1255
-51 -278 -96 -509 -99 -513 -10 -11 -286 541 -392 783 -215 488 -410 1017
-613 1665 -175 559 -371 1238 -831 2878 -91 324 -153 527 -160 527 -71 0
-1642 -532 -2194 -742 -574 -219 -782 -335 -1024 -568 -197 -190 -342 -400
-456 -660 -82 -187 -297 -850 -380 -1175 -179 -700 -352 -1776 -464 -2890 -77
-757 -184 -2299 -172 -2464 7 -99 43 -212 94 -296 40 -68 154 -190 223 -241
l47 -34 7465 0 7465 0 58 43 c142 105 232 242 274 420 36 150 35 255 -4 692
-20 220 -59 677 -86 1015 -118 1451 -169 1924 -281 2595 -133 797 -348 1676
-511 2090 -92 232 -222 469 -360 654 -96 128 -329 360 -454 453 -124 92 -296
192 -429 251 -252 112 -787 302 -1780 632 -401 134 -737 246 -747 250 -13 5
-19 -4 -32 -49z"/>
</g>
</svg>
